2015035_C4_03_grf
version=1
nRows=27
nColumns=19
inDegrees=no
endheader
time	ground_force_1_vx	ground_force_1_vy	ground_force_1_vz	ground_force_1_px	ground_force_1_py	ground_force_1_pz	ground_force_1_mx	ground_force_1_my	ground_force_1_mz	ground_force_2_vx	ground_force_2_vy	ground_force_2_vz	ground_force_2_px	ground_force_2_py	ground_force_2_pz	ground_force_2_mx	ground_force_2_my	ground_force_2_mz
      0.89500000	      0.00000000	      0.00000000	      0.00000000	      0.00000000	      0.00000000	      0.00000000	      0.00000000	      0.00000000	      0.00000000	    -31.29018843	    650.39198846	    -34.54031199	      0.77384230	      0.00000000	     -0.12448934	      0.00000000	     -0.04517472	      0.00000000
      0.89600000	      0.00000000	      0.00000000	      0.00000000	      0.00000000	      0.00000000	      0.00000000	      0.00000000	      0.00000000	      0.00000000	    -30.94062768	    648.96561205	    -34.50010419	      0.77422073	      0.00000000	     -0.12438913	      0.00000000	     -0.02625113	     -0.00000000
      0.89700000	      0.00000000	      0.00000000	      0.00000000	      0.00000000	      0.00000000	      0.00000000	      0.00000000	      0.00000000	      0.00000000	    -30.59409186	    647.57056534	    -34.46275145	      0.77459849	      0.00000000	     -0.12428925	      0.00000000	     -0.00716246	      0.00000000
      0.89800000	      0.00000000	      0.00000000	      0.00000000	      0.00000000	      0.00000000	      0.00000000	      0.00000000	      0.00000000	      0.00000000	    -30.24991602	    646.20129764	    -34.42748487	      0.77497567	      0.00000000	     -0.12418968	      0.00000000	      0.01206912	      0.00000000
      0.89900000	      0.00000000	      0.00000000	      0.00000000	      0.00000000	      0.00000000	      0.00000000	      0.00000000	      0.00000000	      0.00000000	    -29.90860771	    644.86511052	    -34.39456075	      0.77535203	      0.00000000	     -0.12409058	      0.00000000	      0.03149504	      0.00000000
      0.90000000	      0.00000000	      0.00000000	      0.00000000	      0.00000000	      0.00000000	      0.00000000	      0.00000000	      0.00000000	      0.00000000	    -29.56951968	    643.55604351	    -34.36330259	      0.77572768	      0.00000000	     -0.12399188	      0.00000000	      0.05109014	      0.00000000
      0.90100000	      0.00000000	      0.00000000	      0.00000000	      0.00000000	      0.00000000	      0.00000000	      0.00000000	      0.00000000	      0.00000000	    -29.23309896	    642.28165895	    -34.33384746	      0.77610236	      0.00000000	     -0.12389373	      0.00000000	      0.07090992	      0.00000000
      0.90200000	      0.00000000	      0.00000000	      0.00000000	      0.00000000	      0.00000000	      0.00000000	      0.00000000	      0.00000000	      0.00000000	    -28.89871597	    641.03573561	    -34.30560827	      0.77647619	      0.00000000	     -0.12379608	      0.00000000	      0.09091623	      0.00000000
      0.90300000	      0.00000000	      0.00000000	      0.00000000	      0.00000000	      0.00000000	      0.00000000	      0.00000000	      0.00000000	      0.00000000	    -28.56675815	    639.82628286	    -34.27861333	      0.77684889	      0.00000000	     -0.12369911	      0.00000000	      0.11116299	      0.00000000
      0.90400000	      0.00000000	      0.00000000	      0.00000000	      0.00000000	      0.00000000	      0.00000000	      0.00000000	      0.00000000	      0.00000000	    -28.23663875	    638.64655793	    -34.25239325	      0.77722063	      0.00000000	     -0.12360273	      0.00000000	      0.13160780	      0.00000000
      0.90500000	      0.00000000	      0.00000000	      0.00000000	      0.00000000	      0.00000000	      0.00000000	      0.00000000	      0.00000000	      0.00000000	    -27.90870052	    637.50483096	    -34.22687203	      0.77759107	      0.00000000	     -0.12350714	      0.00000000	      0.15230790	      0.00000000
      0.90600000	      0.00000000	      0.00000000	      0.00000000	      0.00000000	      0.00000000	      0.00000000	      0.00000000	      0.00000000	      0.00000000	    -27.58241259	    636.39424741	    -34.20169652	      0.77796042	      0.00000000	     -0.12341227	      0.00000000	      0.17321680	      0.00000000
      0.90700000	      0.00000000	      0.00000000	      0.00000000	      0.00000000	      0.00000000	      0.00000000	      0.00000000	      0.00000000	      0.00000000	    -27.25807391	    635.32330096	    -34.17668641	      0.77832833	      0.00000000	     -0.12331835	      0.00000000	      0.19439285	      0.00000000
      0.90800000	      0.00000000	      0.00000000	      0.00000000	      0.00000000	      0.00000000	      0.00000000	      0.00000000	      0.00000000	      0.00000000	    -26.93519928	    634.28476453	    -34.15160775	      0.77869502	      0.00000000	     -0.12322524	      0.00000000	      0.21578490	      0.00000000
      0.90900000	      0.00000000	      0.00000000	      0.00000000	      0.00000000	      0.00000000	      0.00000000	      0.00000000	      0.00000000	      0.00000000	    -26.61403827	    633.28757882	    -34.12619382	      0.77906009	      0.00000000	     -0.12313324	      0.00000000	      0.23745043	      0.00000000
      0.91000000	      0.00000000	      0.00000000	      0.00000000	      0.00000000	      0.00000000	      0.00000000	      0.00000000	      0.00000000	      0.00000000	    -26.29415132	    632.32406974	    -34.10032392	      0.77942380	      0.00000000	     -0.12304217	      0.00000000	      0.25933831	      0.00000000
      0.91100000	      0.00000000	      0.00000000	      0.00000000	      0.00000000	      0.00000000	      0.00000000	      0.00000000	      0.00000000	      0.00000000	    -25.97573213	    631.40351325	    -34.07366723	      0.77978575	      0.00000000	     -0.12295237	      0.00000000	      0.28151012	      0.00000000
      0.91200000	      0.00000000	      0.00000000	      0.00000000	      0.00000000	      0.00000000	      0.00000000	      0.00000000	      0.00000000	      0.00000000	    -25.65838769	    630.51782548	    -34.04621780	      0.78014621	      0.00000000	     -0.12286364	      0.00000000	      0.30391633	      0.00000000
      0.91300000	      0.00000000	      0.00000000	      0.00000000	      0.00000000	      0.00000000	      0.00000000	      0.00000000	      0.00000000	      0.00000000	    -25.34226980	    629.67643142	    -34.01760459	      0.78050476	      0.00000000	     -0.12277627	      0.00000000	      0.32662773	      0.00000000
      0.91400000	      0.00000000	      0.00000000	      0.00000000	      0.00000000	      0.00000000	      0.00000000	      0.00000000	      0.00000000	      0.00000000	    -25.02704971	    628.87109816	    -33.98793042	      0.78086169	      0.00000000	     -0.12269005	      0.00000000	      0.34959369	      0.00000000
      0.91500000	      0.00000000	      0.00000000	      0.00000000	      0.00000000	      0.00000000	      0.00000000	      0.00000000	      0.00000000	      0.00000000	    -24.71285313	    628.11147422	    -33.95679593	      0.78121655	      0.00000000	     -0.12260532	      0.00000000	      0.37289081	      0.00000000
      0.91600000	      0.00000000	      0.00000000	      0.00000000	      0.00000000	      0.00000000	      0.00000000	      0.00000000	      0.00000000	      0.00000000	    -24.39939603	    627.38880515	    -33.92440379	      0.78156969	      0.00000000	     -0.12252180	      0.00000000	      0.39646280	      0.00000000
      0.91700000	      0.00000000	      0.00000000	      0.00000000	      0.00000000	      0.00000000	      0.00000000	      0.00000000	      0.00000000	      0.00000000	    -24.08676688	    626.71285123	    -33.89034569	      0.78192062	      0.00000000	     -0.12243979	      0.00000000	      0.42039051	      0.00000000
      0.91800000	      0.00000000	      0.00000000	      0.00000000	      0.00000000	      0.00000000	      0.00000000	      0.00000000	      0.00000000	      0.00000000	    -23.77472073	    626.07467175	    -33.85489881	      0.78226972	      0.00000000	     -0.12235900	      0.00000000	      0.44460969	     -0.00000000
      0.91900000	      0.00000000	      0.00000000	      0.00000000	      0.00000000	      0.00000000	      0.00000000	      0.00000000	      0.00000000	      0.00000000	    -23.46330974	    625.48402697	    -33.81766975	      0.78261651	      0.00000000	     -0.12227976	      0.00000000	      0.46919978	      0.00000000
      0.92000000	      0.00000000	      0.00000000	      0.00000000	      0.00000000	      0.00000000	      0.00000000	      0.00000000	      0.00000000	      0.00000000	    -23.15233834	    624.93175268	    -33.77900720	      0.78296141	      0.00000000	     -0.12220176	      0.00000000	      0.49408980	     -0.00000000
      0.92100000	      0.00000000	      0.00000000	      0.00000000	      0.00000000	      0.00000000	      0.00000000	      0.00000000	      0.00000000	      0.00000000	    -22.84183912	    624.42764640	    -33.73855203	      0.78330392	      0.00000000	     -0.12212533	      0.00000000	      0.51935725	      0.00000000
